<svg width="24" height="24" viewBox="0 0 24 24" fill="none" xmlns="http://www.w3.org/2000/svg">
<path d="M8.15625 18.6094C8.15625 18.7344 8.0625 18.8125 7.875 18.8438C7.71875 18.8438 7.64062 18.7812 7.64062 18.6562C7.64062 18.5312 7.71875 18.4688 7.875 18.4688C7.96875 18.4688 8.03125 18.4844 8.0625 18.5156C8.125 18.5469 8.15625 18.5781 8.15625 18.6094ZM6.70312 18.4219C6.67188 18.4531 6.67188 18.5 6.70312 18.5625C6.76562 18.5938 6.82812 18.625 6.89062 18.6562C6.95312 18.6875 7.01562 18.6875 7.07812 18.6562C7.14062 18.625 7.17188 18.5781 7.17188 18.5156C7.20312 18.4219 7.14062 18.3594 6.98438 18.3281C6.82812 18.2656 6.73438 18.2969 6.70312 18.4219ZM8.76562 18.3281C8.60938 18.3594 8.53125 18.4219 8.53125 18.5156C8.5625 18.6094 8.59375 18.6719 8.625 18.7031C8.6875 18.7031 8.75 18.7031 8.8125 18.7031C8.96875 18.6406 9.03125 18.5625 9 18.4688C9 18.375 8.92188 18.3281 8.76562 18.3281ZM11.8594 0.375C9.70312 0.375 7.75 0.875 6 1.875C4.25 2.875 2.875 4.25 1.875 6C0.875 7.75 0.375 9.6875 0.375 11.8125C0.375 14.4062 1.10938 16.7344 2.57812 18.7969C4.04688 20.8281 5.96875 22.2344 8.34375 23.0156C8.59375 23.0781 8.78125 23.0469 8.90625 22.9219C9.0625 22.7969 9.14062 22.6406 9.14062 22.4531L9.09375 19.5938L8.57812 19.6406C8.17188 19.7031 7.78125 19.7188 7.40625 19.6875C6.875 19.625 6.42188 19.4844 6.04688 19.2656C5.60938 19.0156 5.3125 18.6562 5.15625 18.1875L4.96875 17.8125C4.84375 17.5312 4.6875 17.2812 4.5 17.0625C4.28125 16.7812 4.0625 16.5781 3.84375 16.4531L3.60938 16.2656C3.45312 16.1406 3.375 16.0312 3.375 15.9375C3.40625 15.8125 3.59375 15.75 3.9375 15.75L4.26562 15.7969C4.51562 15.8906 4.75 16 4.96875 16.125C5.28125 16.3438 5.53125 16.625 5.71875 16.9688C6.15625 17.75 6.78125 18.1719 7.59375 18.2344C8.09375 18.2969 8.60938 18.2031 9.14062 17.9531C9.23438 17.2656 9.48438 16.7344 9.89062 16.3594C8.76562 16.2344 7.92188 16.0781 7.35938 15.8906C6.48438 15.5781 5.82812 15.0938 5.39062 14.4375C4.89062 13.6562 4.64062 12.5625 4.64062 11.1562C4.64062 10.5625 4.71875 10.0781 4.875 9.70312C5.0625 9.29688 5.34375 8.85938 5.71875 8.39062C5.59375 8.10938 5.53125 7.75 5.53125 7.3125C5.46875 6.625 5.57812 5.9375 5.85938 5.25C6.14062 5.15625 6.5625 5.21875 7.125 5.4375C7.53125 5.59375 7.98438 5.8125 8.48438 6.09375L9.09375 6.51562C10.0312 6.23438 11 6.09375 12 6.09375C13.0312 6.09375 14.0312 6.23438 15 6.51562L15.6094 6.09375C16.1094 5.8125 16.5469 5.59375 16.9219 5.4375C17.4844 5.21875 17.9219 5.15625 18.2344 5.25C18.4844 5.9375 18.5938 6.625 18.5625 7.3125C18.5312 7.75 18.4531 8.125 18.3281 8.4375C18.7656 8.90625 19.0625 9.29688 19.2188 9.60938C19.4375 10.0469 19.5469 10.5625 19.5469 11.1562C19.5469 12.5625 19.2812 13.6719 18.75 14.4844C18.2812 15.1094 17.6094 15.5781 16.7344 15.8906C16.1719 16.0781 15.3125 16.2344 14.1562 16.3594C14.6875 16.7969 14.9531 17.5156 14.9531 18.5156V22.4531C14.9531 22.6406 15.0156 22.7969 15.1406 22.9219C15.2969 23.0469 15.5 23.0781 15.75 23.0156C18.0938 22.2344 19.9844 20.8281 21.4219 18.7969C22.8906 16.7344 23.625 14.4062 23.625 11.8125C23.625 9.6875 23.0938 7.73438 22.0312 5.95312C21 4.23437 19.5781 2.875 17.7656 1.875C15.9531 0.875 13.9844 0.375 11.8594 0.375ZM4.92188 16.5469C4.85938 16.6094 4.875 16.6875 4.96875 16.7812C5.0625 16.875 5.14062 16.8906 5.20312 16.8281C5.26562 16.7656 5.25 16.6875 5.15625 16.5938C5.0625 16.5 4.98438 16.4844 4.92188 16.5469ZM4.40625 16.1719C4.375 16.2344 4.40625 16.2969 4.5 16.3594C4.625 16.4219 4.70312 16.4219 4.73438 16.3594C4.76562 16.2656 4.73438 16.2031 4.64062 16.1719C4.54688 16.1094 4.46875 16.1094 4.40625 16.1719ZM5.95312 17.8125C5.92188 17.8438 5.90625 17.8906 5.90625 17.9531C5.90625 18.0156 5.9375 18.0781 6 18.1406C6.125 18.2656 6.23438 18.2812 6.32812 18.1875C6.35938 18.1562 6.35938 18.1094 6.32812 18.0469C6.32812 17.9844 6.29688 17.9375 6.23438 17.9062C6.20312 17.8438 6.15625 17.8125 6.09375 17.8125C6.03125 17.7812 5.98438 17.7812 5.95312 17.8125ZM5.39062 17.1562C5.32812 17.1875 5.32812 17.2812 5.39062 17.4375C5.45312 17.4688 5.5 17.5 5.53125 17.5312C5.59375 17.5625 5.64062 17.5625 5.67188 17.5312C5.76562 17.4688 5.76562 17.375 5.67188 17.25C5.64062 17.1875 5.59375 17.1562 5.53125 17.1562C5.5 17.125 5.45312 17.125 5.39062 17.1562Z" fill="#B2B2B2"/>
</svg>
